HIERARCHY
ROOT joint_Root
{
	OFFSET 0.0 0.0 0.0
	CHANNELS 6 Xposition Yposition Zposition Zrotation Xrotation Yrotation 
	JOINT Hips
	{
		OFFSET -17.1583 93.1646 452.98
		CHANNELS 6 Xposition Yposition Zposition Zrotation Xrotation Yrotation 
		JOINT Spine
		{
			OFFSET 15.7357 0.0 0.0
			CHANNELS 6 Xposition Yposition Zposition Zrotation Xrotation Yrotation 
			JOINT Chest
			{
				OFFSET 8.98455 -0.406207 0.0
				CHANNELS 6 Xposition Yposition Zposition Zrotation Xrotation Yrotation 
				JOINT Neck
				{
					OFFSET 16.3773 0.0 0.0
					CHANNELS 6 Xposition Yposition Zposition Zrotation Xrotation Yrotation 
					JOINT Head
					{
						OFFSET 6.45672 0.0 0.0
						CHANNELS 6 Xposition Yposition Zposition Zrotation Xrotation Yrotation 
						End Site
						{
							OFFSET 0.0 0.0 0.0
						}
					}
				}
				JOINT Shoulder_L
				{
					OFFSET 12.9942 -0.242716 4.98039
					CHANNELS 6 Xposition Yposition Zposition Zrotation Xrotation Yrotation 
					JOINT UpperArm_L
					{
						OFFSET 5.34809 0.0 0.0
						CHANNELS 6 Xposition Yposition Zposition Zrotation Xrotation Yrotation 
						JOINT LowerArm_L
						{
							OFFSET 24.3286 1.87007e-05 0.0
							CHANNELS 6 Xposition Yposition Zposition Zrotation Xrotation Yrotation 
							JOINT Hand_L
							{
								OFFSET 22.2916 0.0 0.0
								CHANNELS 6 Xposition Yposition Zposition Zrotation Xrotation Yrotation 
								End Site
								{
									OFFSET 0.0 0.0 0.0
								}
							}
						}
					}
				}
				JOINT Shoulder_R
				{
					OFFSET 12.9945 -0.242716 -4.98039
					CHANNELS 6 Xposition Yposition Zposition Zrotation Xrotation Yrotation 
					JOINT UpperArm_R
					{
						OFFSET -5.34813 0.0 0.0
						CHANNELS 6 Xposition Yposition Zposition Zrotation Xrotation Yrotation 
						JOINT LowerArm_R
						{
							OFFSET -24.3289 0.000322201 0.0
							CHANNELS 6 Xposition Yposition Zposition Zrotation Xrotation Yrotation 
							JOINT Hand_R
							{
								OFFSET -22.2915 -0.000108084 0.0
								CHANNELS 6 Xposition Yposition Zposition Zrotation Xrotation Yrotation 
								End Site
								{
									OFFSET 0.0 0.0 0.0
								}
							}
						}
					}
				}
			}
		}
		JOINT UpperLeg_L
		{
			OFFSET -2.19248 -6.46944 0.0
			CHANNELS 6 Xposition Yposition Zposition Zrotation Xrotation Yrotation 
			JOINT LowerLeg_L
			{
				OFFSET 39.0811 0.0 -1.23785e-05
				CHANNELS 6 Xposition Yposition Zposition Zrotation Xrotation Yrotation 
				JOINT Foot_L
				{
					OFFSET 40.9854 0.0 -1.26872e-05
					CHANNELS 6 Xposition Yposition Zposition Zrotation Xrotation Yrotation 
					JOINT Toes_L
					{
						OFFSET 11.7543 0.0 0.0
						CHANNELS 6 Xposition Yposition Zposition Zrotation Xrotation Yrotation 
						End Site
						{
							OFFSET 0.0 0.0 0.0
						}
					}
				}
			}
		}
		JOINT UpperLeg_R
		{
			OFFSET -2.19251 6.46944 0.0
			CHANNELS 6 Xposition Yposition Zposition Zrotation Xrotation Yrotation 
			JOINT LowerLeg_R
			{
				OFFSET -39.0811 -0.00228153 -0.0401928
				CHANNELS 6 Xposition Yposition Zposition Zrotation Xrotation Yrotation 
				JOINT Foot_R
				{
					OFFSET -40.9854 0.0 0.0
					CHANNELS 6 Xposition Yposition Zposition Zrotation Xrotation Yrotation 
					JOINT Toes_R
					{
						OFFSET -11.7543 0.0 0.0
						CHANNELS 6 Xposition Yposition Zposition Zrotation Xrotation Yrotation 
						End Site
						{
							OFFSET 0.0 0.0 0.0
						}
					}
				}
			}
		}
	}
}
MOTION
Frames:	4
Frame Time:	0.0333333
0.000000 0.000000 0.000000 0.000000 0.000000 -0.000000 -1.649410 92.739700 -0.788425 86.510300 -0.253045 1.162070 15.735700 0.000005 -0.000001 72.202500 86.630600 -70.219600 8.984550 -0.406207 -0.000000 -1.308410 -2.216280 3.939610 16.377300 -0.000001 -0.000001 2.448920 2.687520 -2.794360 6.456720 -0.000001 -0.000000 -0.198956 2.542580 -3.654570 12.994200 -0.242716 4.980390 -92.165500 6.789020 -72.262100 5.348090 -0.000007 -0.000001 -75.815600 23.571900 2.737500 24.328600 0.000019 0.000005 13.722100 25.279600 -29.761100 22.291600 -0.000001 0.000005 -0.348123 4.984560 7.646100 12.994500 -0.242716 -4.980390 89.004200 3.374770 -73.549600 -5.348130 -0.000001 -0.000004 -74.140000 22.002000 0.599059 -24.328900 0.000322 -0.000009 1.559150 3.760990 -22.549600 -22.291500 -0.000108 -0.000004 7.526990 5.326510 -0.684586 -2.192480 -6.469440 -0.000000 -175.096000 2.044790 -3.614770 39.081100 -0.000007 -0.000012 0.231632 -0.584204 21.628400 40.985400 -0.000006 -0.000013 1.883400 9.379830 -72.923800 11.754300 -0.000000 0.000003 0.000229 0.163684 -9.938070 -2.192510 6.469440 -0.000001 -173.888000 7.381240 -178.023000 -39.081100 -0.002282 -0.040193 0.044373 -0.186653 12.399900 -40.985400 0.000008 0.000006 1.386190 3.001480 -68.945400 -11.754300 -0.000006 -0.000006 -0.010812 0.277278 -5.306600
0.000000 0.000000 0.000000 0.000000 0.000000 -0.000000 -1.653650 92.764400 -0.840029 86.549300 -0.095581 1.103840 15.735700 0.000005 -0.000001 72.342400 86.602800 -70.385500 8.984550 -0.406207 -0.000000 -1.251130 -2.214400 3.888550 16.377300 -0.000001 -0.000001 2.232930 2.605350 -2.663090 6.456720 -0.000001 -0.000000 -0.376826 2.446200 -3.488210 12.994200 -0.242716 4.980390 -92.173900 6.818680 -72.269600 5.348090 -0.000007 -0.000001 -75.863300 22.068700 2.479550 24.328600 0.000019 0.000005 13.683400 25.515700 -29.475200 22.291600 -0.000001 0.000005 -0.061625 4.972220 7.904230 12.994500 -0.242716 -4.980390 89.007900 3.351150 -73.498700 -5.348130 -0.000001 -0.000004 -73.948000 22.235500 0.961918 -24.328900 0.000322 -0.000009 1.766200 4.104240 -23.319800 -22.291500 -0.000108 -0.000004 6.220730 5.330120 -0.787450 -2.192480 -6.469440 -0.000000 -175.120000 2.104350 -3.653670 39.081100 -0.000007 -0.000012 0.225680 -0.574026 21.462800 40.985400 -0.000006 -0.000013 1.871570 9.442720 -72.788200 11.754300 -0.000000 0.000003 0.000397 0.160656 -10.061000 -2.192510 6.469440 -0.000001 -173.926000 7.401720 -178.071000 -39.081100 -0.002282 -0.040193 0.041398 -0.174641 12.295500 -40.985400 0.000008 0.000006 1.147960 2.947610 -68.829900 -11.754300 -0.000006 -0.000006 -0.010854 0.277577 -5.294360
0.000000 0.000000 0.000000 0.000000 0.000000 -0.000000 -1.652310 92.788900 -0.902592 86.563900 0.041092 0.954159 15.735700 0.000005 -0.000001 72.391300 86.593000 -70.445600 8.984550 -0.406207 -0.000000 -1.230840 -2.213610 3.866560 16.377300 -0.000001 -0.000001 1.998680 2.542600 -2.532630 6.456720 -0.000001 -0.000000 -0.672137 2.369840 -3.301750 12.994200 -0.242716 4.980390 -92.201200 6.883840 -72.219200 5.348090 -0.000007 -0.000001 -75.883400 19.338800 2.075650 24.328600 0.000019 0.000005 13.514500 25.723600 -28.975500 22.291600 -0.000001 0.000005 -0.039623 4.952540 8.313410 12.994500 -0.242716 -4.980390 88.991100 3.398730 -73.455900 -5.348130 -0.000001 -0.000004 -73.484100 21.602400 1.125630 -24.328900 0.000322 -0.000009 2.326780 5.275550 -23.850700 -22.291500 -0.000108 -0.000004 4.084200 5.321670 -0.541297 -2.192480 -6.469440 -0.000000 -175.134000 2.212070 -3.802640 39.081100 -0.000007 -0.000012 0.224664 -0.575507 21.324900 40.985400 -0.000006 -0.000013 1.857530 9.454400 -72.643500 11.754300 -0.000000 0.000003 0.000552 0.157744 -10.179200 -2.192510 6.469440 -0.000001 -173.930000 7.464790 -178.214000 -39.081100 -0.002282 -0.040193 0.038522 -0.163274 12.161800 -40.985400 0.000008 0.000006 0.991461 2.892100 -68.683200 -11.754300 -0.000006 -0.000006 -0.010812 0.277276 -5.306690
0.000000 0.000000 0.000000 0.000000 0.000000 -0.000000 -1.642280 92.811100 -0.954190 86.605000 0.150947 0.912328 15.735700 0.000005 -0.000001 72.784400 86.553100 -70.861700 8.984550 -0.406207 -0.000000 -1.141630 -2.189290 3.822470 16.377300 -0.000001 -0.000001 1.751230 2.459540 -2.390220 6.456720 -0.000001 -0.000000 -1.006740 2.269420 -3.044910 12.994200 -0.242716 4.980390 -92.262900 7.031510 -72.109800 5.348090 -0.000007 -0.000001 -75.710300 15.188000 1.531960 24.328600 0.000019 0.000005 12.754300 25.008500 -28.165600 22.291600 -0.000001 0.000005 -0.213317 4.922650 8.921370 12.994500 -0.242716 -4.980390 88.934300 3.567120 -73.354200 -5.348130 -0.000001 -0.000004 -72.609300 20.106100 0.903748 -24.328900 0.000322 -0.000009 2.894800 6.592870 -23.778000 -22.291500 -0.000108 -0.000004 1.731960 5.304000 -0.034155 -2.192480 -6.469440 -0.000000 -175.162000 2.239250 -3.830840 39.081100 -0.000007 -0.000012 0.220551 -0.568809 21.193800 40.985400 -0.000006 -0.000013 1.857620 9.554420 -72.621300 11.754300 -0.000000 0.000003 0.000316 0.162131 -10.001100 -2.192510 6.469440 -0.000001 -173.985000 7.492740 -178.281000 -39.081100 -0.002282 -0.040193 0.036234 -0.153213 12.119000 -40.985400 0.000008 0.000006 0.739845 2.876930 -68.574900 -11.754300 -0.000006 -0.000006 -0.010731 0.276687 -5.330820
